<mxfile host="app.diagrams.net" modified="2021-01-12T16:12:39.734Z" agent="5.0 (Windows NT 10.0; Win64; x64) AppleWebKit/537.36 (KHTML, like Gecko) Chrome/81.0.4044.138 Safari/537.36" etag="rnETe-I8dn_KkJceo6UY" version="13.8.8" type="github">
  <diagram id="gNJBUIknUm7onXBSN99n" name="Page-1">
    <mxGraphModel dx="1422" dy="762" grid="1" gridSize="10" guides="1" tooltips="1" connect="1" arrows="1" fold="1" page="1" pageScale="1" pageWidth="827" pageHeight="1169" math="0" shadow="0">
      <root>
        <mxCell id="0" />
        <mxCell id="1" parent="0" />
        <mxCell id="tz-tE8gGZg-E1r9jy68T-6" value="" style="edgeStyle=orthogonalEdgeStyle;rounded=0;orthogonalLoop=1;jettySize=auto;html=1;" edge="1" parent="1" target="tz-tE8gGZg-E1r9jy68T-5">
          <mxGeometry relative="1" as="geometry">
            <mxPoint x="440" y="150" as="sourcePoint" />
            <Array as="points">
              <mxPoint x="230" y="150" />
            </Array>
          </mxGeometry>
        </mxCell>
        <mxCell id="tz-tE8gGZg-E1r9jy68T-8" value="" style="edgeStyle=orthogonalEdgeStyle;rounded=0;orthogonalLoop=1;jettySize=auto;html=1;" edge="1" parent="1" source="tz-tE8gGZg-E1r9jy68T-1" target="tz-tE8gGZg-E1r9jy68T-7">
          <mxGeometry relative="1" as="geometry">
            <Array as="points">
              <mxPoint x="400" y="150" />
              <mxPoint x="590" y="150" />
            </Array>
          </mxGeometry>
        </mxCell>
        <mxCell id="tz-tE8gGZg-E1r9jy68T-1" value="钻井仿真实习模拟平台" style="rounded=1;whiteSpace=wrap;html=1;" vertex="1" parent="1">
          <mxGeometry x="300" y="40" width="190" height="60" as="geometry" />
        </mxCell>
        <mxCell id="tz-tE8gGZg-E1r9jy68T-10" value="" style="edgeStyle=orthogonalEdgeStyle;rounded=0;orthogonalLoop=1;jettySize=auto;html=1;" edge="1" parent="1" target="tz-tE8gGZg-E1r9jy68T-9">
          <mxGeometry relative="1" as="geometry">
            <mxPoint x="190" y="290" as="sourcePoint" />
          </mxGeometry>
        </mxCell>
        <mxCell id="tz-tE8gGZg-E1r9jy68T-12" value="" style="edgeStyle=orthogonalEdgeStyle;rounded=0;orthogonalLoop=1;jettySize=auto;html=1;" edge="1" parent="1" target="tz-tE8gGZg-E1r9jy68T-11">
          <mxGeometry relative="1" as="geometry">
            <mxPoint x="190" y="290" as="sourcePoint" />
          </mxGeometry>
        </mxCell>
        <mxCell id="tz-tE8gGZg-E1r9jy68T-14" value="" style="edgeStyle=orthogonalEdgeStyle;rounded=0;orthogonalLoop=1;jettySize=auto;html=1;" edge="1" parent="1" source="tz-tE8gGZg-E1r9jy68T-5" target="tz-tE8gGZg-E1r9jy68T-13">
          <mxGeometry relative="1" as="geometry" />
        </mxCell>
        <mxCell id="tz-tE8gGZg-E1r9jy68T-5" value="设备工具" style="whiteSpace=wrap;html=1;rounded=1;" vertex="1" parent="1">
          <mxGeometry x="165" y="197.5" width="120" height="60" as="geometry" />
        </mxCell>
        <mxCell id="tz-tE8gGZg-E1r9jy68T-16" value="" style="edgeStyle=orthogonalEdgeStyle;rounded=0;orthogonalLoop=1;jettySize=auto;html=1;" edge="1" parent="1" source="tz-tE8gGZg-E1r9jy68T-7" target="tz-tE8gGZg-E1r9jy68T-15">
          <mxGeometry relative="1" as="geometry" />
        </mxCell>
        <mxCell id="tz-tE8gGZg-E1r9jy68T-7" value="钻井仿真操作" style="whiteSpace=wrap;html=1;rounded=1;" vertex="1" parent="1">
          <mxGeometry x="530" y="200" width="120" height="60" as="geometry" />
        </mxCell>
        <mxCell id="tz-tE8gGZg-E1r9jy68T-9" value="功用" style="whiteSpace=wrap;html=1;rounded=1;" vertex="1" parent="1">
          <mxGeometry x="100" y="340" width="75" height="50" as="geometry" />
        </mxCell>
        <mxCell id="tz-tE8gGZg-E1r9jy68T-11" value="工作原理" style="whiteSpace=wrap;html=1;rounded=1;" vertex="1" parent="1">
          <mxGeometry x="280" y="340" width="70" height="50" as="geometry" />
        </mxCell>
        <mxCell id="tz-tE8gGZg-E1r9jy68T-13" value="结构" style="whiteSpace=wrap;html=1;rounded=1;" vertex="1" parent="1">
          <mxGeometry x="187.5" y="340" width="75" height="50" as="geometry" />
        </mxCell>
        <mxCell id="tz-tE8gGZg-E1r9jy68T-18" value="" style="edgeStyle=orthogonalEdgeStyle;rounded=0;orthogonalLoop=1;jettySize=auto;html=1;" edge="1" parent="1" source="tz-tE8gGZg-E1r9jy68T-15" target="tz-tE8gGZg-E1r9jy68T-17">
          <mxGeometry relative="1" as="geometry" />
        </mxCell>
        <mxCell id="tz-tE8gGZg-E1r9jy68T-15" value="慕课网学习" style="whiteSpace=wrap;html=1;rounded=1;" vertex="1" parent="1">
          <mxGeometry x="530" y="300" width="120" height="60" as="geometry" />
        </mxCell>
        <mxCell id="tz-tE8gGZg-E1r9jy68T-20" value="" style="edgeStyle=orthogonalEdgeStyle;rounded=0;orthogonalLoop=1;jettySize=auto;html=1;" edge="1" parent="1" source="tz-tE8gGZg-E1r9jy68T-17" target="tz-tE8gGZg-E1r9jy68T-19">
          <mxGeometry relative="1" as="geometry" />
        </mxCell>
        <mxCell id="tz-tE8gGZg-E1r9jy68T-17" value="有提示操作" style="whiteSpace=wrap;html=1;rounded=1;" vertex="1" parent="1">
          <mxGeometry x="530" y="410" width="120" height="60" as="geometry" />
        </mxCell>
        <mxCell id="tz-tE8gGZg-E1r9jy68T-22" value="" style="edgeStyle=orthogonalEdgeStyle;rounded=0;orthogonalLoop=1;jettySize=auto;html=1;" edge="1" parent="1" source="tz-tE8gGZg-E1r9jy68T-19" target="tz-tE8gGZg-E1r9jy68T-21">
          <mxGeometry relative="1" as="geometry" />
        </mxCell>
        <mxCell id="tz-tE8gGZg-E1r9jy68T-19" value="无提示操作" style="whiteSpace=wrap;html=1;rounded=1;" vertex="1" parent="1">
          <mxGeometry x="530" y="520" width="120" height="60" as="geometry" />
        </mxCell>
        <mxCell id="tz-tE8gGZg-E1r9jy68T-21" value="考试" style="whiteSpace=wrap;html=1;rounded=1;" vertex="1" parent="1">
          <mxGeometry x="530" y="630" width="120" height="60" as="geometry" />
        </mxCell>
        <mxCell id="tz-tE8gGZg-E1r9jy68T-23" value="&lt;h2&gt;一平台&lt;/h2&gt;" style="text;html=1;strokeColor=#B20000;fillColor=#e51400;align=center;verticalAlign=middle;whiteSpace=wrap;rounded=0;fontColor=#ffffff;" vertex="1" parent="1">
          <mxGeometry x="630" y="60" width="90" height="20" as="geometry" />
        </mxCell>
        <mxCell id="tz-tE8gGZg-E1r9jy68T-24" value="" style="shape=singleArrow;direction=west;whiteSpace=wrap;html=1;fillColor=#fa6800;strokeColor=#C73500;fontColor=#ffffff;" vertex="1" parent="1">
          <mxGeometry x="520" y="55" width="100" height="30" as="geometry" />
        </mxCell>
        <mxCell id="tz-tE8gGZg-E1r9jy68T-25" value="" style="shape=singleArrow;direction=west;whiteSpace=wrap;html=1;fillColor=#fa6800;strokeColor=#C73500;fontColor=#ffffff;" vertex="1" parent="1">
          <mxGeometry x="300" y="215" width="50" height="25" as="geometry" />
        </mxCell>
        <mxCell id="tz-tE8gGZg-E1r9jy68T-26" value="" style="shape=singleArrow;whiteSpace=wrap;html=1;fillColor=#fa6800;strokeColor=#C73500;fontColor=#ffffff;" vertex="1" parent="1">
          <mxGeometry x="470" y="215" width="50" height="25" as="geometry" />
        </mxCell>
        <mxCell id="tz-tE8gGZg-E1r9jy68T-28" value="&lt;h3&gt;&lt;font style=&quot;font-size: 18px&quot;&gt;两模块&lt;/font&gt;&lt;/h3&gt;" style="text;html=1;strokeColor=#B20000;fillColor=#e51400;align=center;verticalAlign=middle;whiteSpace=wrap;rounded=0;fontFamily=Verdana;fontColor=#ffffff;" vertex="1" parent="1">
          <mxGeometry x="360" y="215" width="100" height="25" as="geometry" />
        </mxCell>
        <mxCell id="tz-tE8gGZg-E1r9jy68T-34" value="&lt;h3&gt;&lt;font style=&quot;font-size: 18px&quot;&gt;三基本&lt;/font&gt;&lt;/h3&gt;" style="text;html=1;strokeColor=#B20000;fillColor=#e51400;align=center;verticalAlign=middle;whiteSpace=wrap;rounded=0;fontFamily=Verdana;fontColor=#ffffff;" vertex="1" parent="1">
          <mxGeometry y="310" width="80" height="20" as="geometry" />
        </mxCell>
        <mxCell id="tz-tE8gGZg-E1r9jy68T-35" value="" style="shape=singleArrow;whiteSpace=wrap;html=1;fontFamily=Verdana;fillColor=#fa6800;strokeColor=#C73500;fontColor=#ffffff;" vertex="1" parent="1">
          <mxGeometry x="90" y="310" width="40" height="20" as="geometry" />
        </mxCell>
        <mxCell id="tz-tE8gGZg-E1r9jy68T-36" value="" style="rounded=1;arcSize=10;dashed=1;strokeColor=#000000;fillColor=none;gradientColor=none;dashPattern=8 3 1 3;strokeWidth=2;fontFamily=Verdana;" vertex="1" parent="1">
          <mxGeometry x="490" y="280" width="200" height="430" as="geometry" />
        </mxCell>
        <mxCell id="tz-tE8gGZg-E1r9jy68T-37" value="&lt;h2&gt;四个层次&lt;/h2&gt;" style="text;html=1;strokeColor=#B20000;fillColor=#e51400;align=center;verticalAlign=middle;whiteSpace=wrap;rounded=0;fontFamily=Verdana;fontColor=#ffffff;" vertex="1" parent="1">
          <mxGeometry x="285" y="550" width="75" height="20" as="geometry" />
        </mxCell>
        <mxCell id="tz-tE8gGZg-E1r9jy68T-38" value="" style="shape=singleArrow;whiteSpace=wrap;html=1;fontFamily=Verdana;fillColor=#fa6800;strokeColor=#C73500;fontColor=#ffffff;" vertex="1" parent="1">
          <mxGeometry x="380" y="545" width="90" height="30" as="geometry" />
        </mxCell>
      </root>
    </mxGraphModel>
  </diagram>
</mxfile>
